<?xml version="1.0" standalone="no"?>
<!DOCTYPE svg PUBLIC "-//W3C//DTD SVG 20010904//EN"
 "http://www.w3.org/TR/2001/REC-SVG-20010904/DTD/svg10.dtd">
<svg version="1.0" xmlns="http://www.w3.org/2000/svg"
 width="135.000000pt" height="135.000000pt" viewBox="0 0 135.000000 135.000000"
 preserveAspectRatio="xMidYMid meet">
<metadata>
Created by potrace 1.11, written by Peter Selinger 2001-2013
</metadata>
<g transform="translate(0.000000,135.000000) scale(0.100000,-0.100000)"
fill="#000000" stroke="none">
<path d="M657 1320 c-10 -16 -21 -29 -25 -29 -40 6 -56 -17 -27 -41 8 -7 15
-28 15 -47 0 -32 2 -35 23 -28 28 9 46 9 75 0 22 -7 24 -5 21 21 -2 16 4 40
14 54 23 33 22 37 -13 44 -19 3 -34 15 -42 31 -14 32 -20 32 -41 -5z"/>
<path d="M424 1138 c-149 -90 -143 -85 -137 -108 8 -32 35 -24 145 42 121 72
138 85 132 103 -12 29 -44 20 -140 -37z"/>
<path d="M801 1187 c-6 -8 -9 -21 -6 -28 8 -20 233 -151 253 -147 9 2 18 12
20 23 2 16 -20 34 -110 87 -135 80 -142 83 -157 65z"/>
<path d="M180 1025 c-16 -17 -31 -23 -46 -21 -32 6 -38 -8 -20 -42 9 -18 11
-33 5 -43 -18 -29 -11 -41 21 -34 20 4 37 1 52 -9 32 -22 38 -20 38 13 0 20 8
34 25 45 33 22 32 32 -5 45 -18 6 -30 17 -30 28 0 38 -15 44 -40 18z"/>
<path d="M1136 1043 c-3 -3 -6 -19 -6 -35 0 -17 -8 -33 -20 -40 -27 -17 -25
-35 6 -42 16 -4 29 -17 36 -36 12 -36 23 -38 43 -6 11 17 24 23 41 21 32 -3
39 10 21 38 -8 13 -12 35 -9 55 4 33 -8 41 -37 23 -10 -7 -23 -3 -42 9 -14 11
-29 17 -33 13z"/>
<path d="M365 924 c-13 -14 -11 -42 4 -45 18 -5 571 -7 599 -3 36 6 45 36 14
53 -9 5 -146 9 -310 9 -240 0 -295 -3 -307 -14z"/>
<path d="M168 822 c-16 -3 -18 -19 -18 -153 0 -124 3 -151 15 -155 36 -14 43
12 44 155 2 144 -3 162 -41 153z"/>
<path d="M302 818 c-7 -7 -12 -16 -12 -20 0 -13 302 -532 314 -540 17 -12 24
-10 35 10 7 14 -21 71 -140 276 -82 142 -154 265 -160 272 -14 17 -22 17 -37
2z"/>
<path d="M967 738 c-170 -291 -257 -446 -257 -460 0 -21 31 -32 46 -16 10 11
192 322 262 448 13 25 28 49 33 55 21 22 4 65 -26 65 -2 0 -28 -42 -58 -92z"/>
<path d="M1162 818 c-8 -8 -12 -57 -12 -154 0 -134 1 -143 20 -149 11 -3 24
-3 30 0 15 9 13 288 -2 303 -7 7 -15 12 -18 12 -3 0 -11 -5 -18 -12z"/>
<path d="M186 447 c-13 -14 -26 -17 -47 -13 -35 7 -41 -2 -24 -34 11 -21 11
-29 -1 -52 -16 -31 -6 -43 30 -34 16 4 29 -1 41 -14 24 -27 31 -25 38 8 4 17
16 33 31 40 33 15 33 29 1 44 -16 7 -25 19 -25 33 0 34 -22 45 -44 22z"/>
<path d="M1120 430 c0 -19 -7 -34 -20 -42 -27 -17 -25 -36 4 -44 15 -3 29 -17
35 -35 12 -35 17 -36 46 -5 15 16 30 23 43 19 27 -7 38 14 18 36 -11 12 -14
28 -9 54 6 41 5 41 -30 28 -18 -7 -30 -6 -43 4 -30 23 -44 18 -44 -15z"/>
<path d="M290 310 c-9 -17 -4 -24 42 -53 97 -62 194 -117 205 -117 21 0 33 26
20 43 -15 19 -227 147 -244 147 -7 0 -17 -9 -23 -20z"/>
<path d="M995 312 c-105 -60 -204 -124 -208 -136 -6 -14 10 -36 27 -36 10 0
109 57 204 117 46 29 51 36 42 53 -13 24 -25 24 -65 2z"/>
<path d="M620 142 c0 -26 -7 -45 -20 -57 -23 -20 -12 -35 25 -35 11 0 25 -10
30 -22 15 -32 33 -33 46 -4 8 17 20 26 35 26 32 0 39 18 18 42 -11 11 -17 31
-16 44 5 36 -5 44 -35 29 -22 -12 -30 -12 -55 1 l-28 15 0 -39z"/>
</g>
</svg>
